<svg id="Layer_1" data-name="Layer 1" xmlns="http://www.w3.org/2000/svg" viewBox="0 0 895.98 732.39"><defs><style>.cls-1{fill:#e5e5e5;}.cls-2{fill:#989898;}.cls-3{fill:#2ab998;}</style></defs><polygon class="cls-1" points="819.37 35.74 808.97 28.62 850.14 0 819.37 35.74"/><polygon class="cls-2" points="848.53 34.25 873.72 16.12 879 30.62 848.53 34.25"/><polygon class="cls-2" points="871.96 14.28 853.81 4.46 843.72 20.43 871.96 14.28"/><polygon class="cls-1" points="0 661.09 111.8 641.59 155.91 534.71 0 661.09"/><polygon class="cls-1" points="79.23 586.44 156.06 525.73 175.76 445.34 79.23 586.44"/><polygon class="cls-1" points="184.56 434.2 210 530.57 273.45 352.82 184.56 434.2"/><polygon class="cls-1" points="205 407.01 270.33 348.87 217.52 362.95 205 407.01"/><polygon class="cls-1" points="282.04 344.94 245.96 456.06 305.63 546.49 282.04 344.94"/><polygon class="cls-1" points="290.35 337.88 304.18 464.85 360.38 368.19 290.35 337.88"/><polygon class="cls-1" points="305.73 477.98 365.68 373.23 345.49 504.64 305.73 477.98"/><polygon class="cls-1" points="360.39 359.62 307.09 335.59 328.51 290.99 360.39 359.62"/><polygon class="cls-1" points="366.24 357.04 403.56 241.57 333.83 286.78 366.24 357.04"/><polygon class="cls-1" points="521.41 372.48 397.23 290.05 436.2 157.44 521.41 372.48"/><polygon class="cls-1" points="405.88 231.92 428.3 158.47 347.92 232.92 353.12 264.96 405.88 231.92"/><polygon class="cls-1" points="657.75 225.41 538.52 248.3 603.75 306.36 657.75 225.41"/><polygon class="cls-1" points="748.48 147.91 664.92 115.25 657.85 155.81 748.48 147.91"/><polygon class="cls-1" points="654.4 140.98 645.54 197.29 551.11 149.94 627.45 146.06 654.4 140.98"/><polygon class="cls-1" points="529.74 109.5 581.45 103.05 546.29 145.72 529.74 109.5"/><polygon class="cls-1" points="661.75 93.09 626.39 79.71 588.26 103.06 614.7 104.79 661.75 93.09"/><polygon class="cls-1" points="214.78 281.31 264.3 193.21 188.29 247.8 214.78 281.31"/><polygon class="cls-1" points="204.03 229.96 257.56 193.2 226.13 193.15 204.03 229.96"/><polygon class="cls-1" points="270.52 190.97 261.93 207.29 343.14 228.26 270.52 190.97"/><polygon class="cls-3" points="797.37 402.15 826.73 422.06 852.66 366.85 797.37 402.15"/><polygon class="cls-3" points="842.27 402.22 832.16 425.62 858.02 426.19 882.56 390.03 853.96 411.76 842.27 402.22"/><polygon class="cls-3" points="876.04 142.45 856.59 189.77 876 173.27 895.98 187.18 876.04 142.45"/><polygon class="cls-3" points="815.45 125.83 838.07 148.11 833.52 189.74 817.02 167.26 825.83 149.52 815.45 125.83"/><polygon class="cls-3" points="797.67 142.34 820.83 149.31 813.76 162.97 797.67 142.34"/><polygon class="cls-1" points="737.57 353.08 791.68 422.32 770.93 426.06 737.57 353.08"/><polygon class="cls-1" points="774.09 429.51 792.88 426.09 842.21 465.94 774.09 429.51"/><polygon class="cls-1" points="744.38 157.67 728.42 183.81 709.09 284.47 699.85 187.3 744.38 157.67"/><polygon class="cls-1" points="846.82 477.87 806.6 477.58 808.88 511.67 846.82 477.87"/><polygon class="cls-1" points="799.87 480.12 802.01 510.33 759.83 487 799.87 480.12"/><polygon class="cls-1" points="806.99 522.58 814.78 595.25 775.19 589.48 806.99 522.58"/><polygon class="cls-1" points="759.82 495.17 800.4 517.47 780.95 558.87 759.82 495.17"/><polygon class="cls-1" points="774.16 598.05 813.75 603.41 802.95 732.39 774.16 598.05"/><polygon class="cls-1" points="187.06 254.12 243.42 328.43 218.34 357.51 226.27 332.48 187.06 254.12"/><polygon class="cls-1" points="347.93 224.86 364.69 209.17 318.15 209.1 347.93 224.86"/><polygon class="cls-1" points="878.59 125.45 854.14 94.73 881.88 107.56 878.59 125.45"/><polygon class="cls-1" points="863.9 118.42 841.08 88.72 831.59 115.38 841.05 111.31 863.9 118.42"/><polygon class="cls-1" points="441.92 151.78 523.2 113.06 482.39 249.44 441.92 151.78"/><polygon class="cls-1" points="490.15 249.46 661.57 217.05 508.4 189.88 490.15 249.46"/><polygon class="cls-1" points="527.35 117.8 542.6 153.64 655.32 210.15 509.91 182.47 527.35 117.8"/><polygon class="cls-1" points="707.53 92.03 755.35 49.63 826.87 62.17 707.53 92.03"/><polygon class="cls-1" points="777.66 31.66 811.81 53.92 759.03 45.44 777.66 31.66"/><polygon class="cls-1" points="667.51 108.33 751.48 141.12 825.6 67.75 667.51 108.33"/><polygon class="cls-1" points="666.5 101.26 700.22 93.49 669.32 80.99 666.5 101.26"/><polygon class="cls-2" points="181.06 455.35 165.99 526.36 215.88 582.49 181.06 455.35"/><polygon class="cls-2" points="163.73 536.56 121.67 640.99 214.81 592.55 163.73 536.56"/><polygon class="cls-2" points="216.35 540.88 241.76 466.94 365.08 647.81 216.35 540.88"/><polygon class="cls-2" points="306.87 490.3 385.23 544.43 314.4 551.13 306.87 490.3"/><polygon class="cls-2" points="314.25 558.61 396.85 551.25 450.55 679.5 314.25 558.61"/><polygon class="cls-2" points="395.18 296.87 376.32 353.86 427.26 318.01 395.18 296.87"/><polygon class="cls-2" points="437.86 327.89 542.12 397.43 486.13 440.62 437.86 327.89"/><polygon class="cls-2" points="426.97 328.35 462.78 408.41 410.62 344.11 426.97 328.35"/><polygon class="cls-2" points="371.4 368.27 401.56 491.45 352.56 507.44 371.4 368.27"/><polygon class="cls-2" points="485.04 257.61 529.54 250.53 529.36 373.46 485.04 257.61"/><polygon class="cls-2" points="538.51 258.3 602.51 318.6 560.44 333.51 538.51 258.3"/><polygon class="cls-2" points="610.07 313.92 660.73 230.51 637.39 327.09 610.07 313.92"/><polygon class="cls-2" points="608.83 321.67 635.31 333.62 621.63 384.48 608.83 321.67"/><polygon class="cls-2" points="656.61 164.93 651.81 192.27 691.82 184.98 656.61 164.93"/><polygon class="cls-2" points="733.63 157.01 666.41 162.35 695.64 179 733.63 157.01"/><polygon class="cls-2" points="880.53 96.67 859.88 73.24 880.57 71.64 880.53 96.67"/><polygon class="cls-2" points="857.03 69.12 879.35 67.25 868.21 54.71 857.03 69.12"/><polygon class="cls-2" points="796.53 38.59 849.28 67.78 838.22 44.63 796.53 38.59"/><polygon class="cls-2" points="760.56 142.28 796.43 106.11 776.45 141.15 760.56 142.28"/><polygon class="cls-2" points="800.28 102.44 833.34 69.08 836.54 80.01 800.28 102.44"/><polygon class="cls-2" points="843.3 206.39 814.45 256.76 827.04 263.26 843.3 206.39"/><polygon class="cls-2" points="812.4 261.35 825.18 267.9 820.6 309.9 812.4 261.35"/><polygon class="cls-2" points="820.89 318 826.01 374.54 814.3 359.72 820.89 318"/><polygon class="cls-2" points="556.29 144.51 575.99 143.14 582.73 111.62 556.29 144.51"/><polygon class="cls-2" points="661.13 98.57 625.73 107.06 659.23 109.11 661.13 98.57"/><polygon class="cls-2" points="589.54 109.68 585.16 130.4 605.03 110.85 589.54 109.68"/><polygon class="cls-2" points="259.78 212.49 245.79 237.5 326.29 228.81 259.78 212.49"/><polygon class="cls-2" points="343.13 235.23 332.34 280.66 347.87 270.07 343.13 235.23"/><polygon class="cls-1" points="224.79 272.61 217.7 285.99 232.9 308.29 224.79 272.61"/><polygon class="cls-2" points="86.34 655.16 115.19 651.12 131.6 645.5 125.58 710.6 86.34 655.16"/><polygon class="cls-2" points="312.1 235.19 337.08 244.03 340.16 231.89 312.1 235.19"/><polygon class="cls-2" points="227.97 355.17 248.21 330.92 276.02 341.88 227.97 355.17"/><polyline class="cls-3" points="616.79 112.69 614.66 130.79 628.11 139.41 654.2 135.13 657.9 116.21"/><polygon class="cls-3" points="610.04 114.41 608.08 133.39 619.98 140.93 582.69 142.78 610.04 114.41"/></svg>