<svg id="Layer_1" data-name="Layer 1" xmlns="http://www.w3.org/2000/svg" viewBox="0 0 804.67 659.11"><defs><style>.cls-1{fill:#999;}.cls-1,.cls-2,.cls-3{stroke:#fff;stroke-miterlimit:10;stroke-width:1.98px;}.cls-2{fill:#e5e5e5;}.cls-3{fill:#28b998;}</style></defs><polygon class="cls-1" points="17.92 337.68 1.04 269.52 31.51 197.79 56.47 258.26 17.92 337.68"/><polygon class="cls-2" points="747.06 40.95 556.88 1.13 458.05 39.91 747.06 40.95"/><polygon class="cls-2" points="567.61 97.97 747.06 40.95 458.05 39.91 379.27 103.48 567.61 97.97"/><polygon class="cls-2" points="402.79 4.78 379.27 103.48 458.05 39.91 556.88 1.13 402.79 4.78"/><polygon class="cls-2" points="635.76 76.32 709.37 162.94 534.18 151.41 510.13 118.71 567.61 97.97 635.76 76.32"/><polygon class="cls-2" points="285.48 142.28 285.77 61.94 402.79 4.78 379.27 103.48 285.48 142.28"/><polygon class="cls-2" points="584.3 216.25 534.18 151.41 709.37 162.94 584.3 216.25"/><polygon class="cls-2" points="727.09 273.63 584.3 216.25 709.37 162.94 727.09 273.63"/><polygon class="cls-2" points="452.32 232.05 584.3 216.25 534.18 151.41 452.32 232.05"/><polygon class="cls-2" points="510.13 118.71 437.35 195.17 444.25 236.57 452.32 232.05 534.18 151.41 510.13 118.71"/><polygon class="cls-2" points="334.73 170.18 326.43 236.15 444.25 236.57 437.35 195.17 334.73 170.18"/><polygon class="cls-2" points="432.62 111.91 396.34 118.64 334.73 170.18 285.41 161.41 285.48 142.28 379.27 103.48 432.62 111.91"/><polygon class="cls-2" points="285.77 61.94 234.21 117.72 228.05 150.31 285.5 136.57 285.77 61.94"/><polygon class="cls-2" points="285.41 161.41 302.42 192.89 262.08 209.14 228.05 150.31 285.5 136.57 285.41 161.41"/><polygon class="cls-2" points="326.43 236.15 302.42 192.89 285.41 161.41 334.73 170.18 326.43 236.15"/><polygon class="cls-2" points="262.08 209.14 326.43 236.15 302.42 192.89 262.08 209.14"/><polygon class="cls-2" points="802.73 523.61 608.98 355.3 597.13 288.62 727.09 273.63 802.73 523.61"/><polygon class="cls-2" points="584.3 216.25 597.13 288.62 727.09 273.63 584.3 216.25"/><polygon class="cls-2" points="608.98 355.3 444.25 236.57 584.3 216.25 608.98 355.3"/><polygon class="cls-2" points="648.35 389.5 579.59 407.41 608.98 355.3 648.35 389.5"/><polygon class="cls-2" points="444.25 236.57 579.59 407.41 608.98 355.3 444.25 236.57"/><polygon class="cls-2" points="466.67 442.63 579.59 407.41 444.25 236.57 423.82 318.97 466.67 442.63"/><polygon class="cls-2" points="334.26 299.08 326.43 236.15 444.25 236.57 334.26 299.08"/><polygon class="cls-2" points="448.01 388.78 334.26 299.08 444.25 236.57 425.4 312.6 448.01 388.78"/><polygon class="cls-2" points="342.68 478.64 334.26 299.08 448.01 388.78 342.68 478.64"/><polygon class="cls-2" points="501.11 528.24 466.67 442.63 579.59 407.41 501.11 528.24"/><polygon class="cls-2" points="342.68 478.64 466.67 442.63 448.01 388.78 342.68 478.64"/><polygon class="cls-2" points="334.26 299.08 301.39 478.49 342.68 478.64 334.26 299.08"/><polygon class="cls-1" points="510.13 118.71 567.61 97.97 379.27 103.48 432.62 111.91 518.73 108.27 510.13 118.71"/><path class="cls-3" d="M523.62,382.51,605,295.61l-86.12,3.64L482.61,306l43.22,22.14Q524.72,355.31,523.62,382.51Z" transform="translate(-86.27 -187.34)"/><polygon class="cls-3" points="334.73 170.18 437.35 195.17 439.56 140.77 396.34 118.64 334.73 170.18"/><polygon class="cls-1" points="639.55 391.79 779.32 592.14 579.59 407.41 639.55 391.79"/><polygon class="cls-1" points="629.23 603.37 573.16 515.03 579.59 407.41 629.23 603.37"/><polygon class="cls-1" points="430.99 563.37 442.84 628.46 400.74 573.98 430.99 563.37"/><polygon class="cls-1" points="573.16 515.03 572.98 565.5 501.11 528.24 579.59 407.41 573.16 515.03"/><polygon class="cls-1" points="554.54 650.91 501.11 528.24 572.98 565.5 554.54 650.91"/><polygon class="cls-1" points="466.67 442.63 400.74 575.61 501.11 528.24 469.75 450.27 466.67 442.63"/><polygon class="cls-1" points="322.04 478.56 400.74 575.61 466.67 442.63 342.68 478.64 322.04 478.56"/><polygon class="cls-1" points="377.28 657.56 190.4 539.12 331.8 490.61 400.74 575.61 377.28 657.56"/><polygon class="cls-1" points="322.04 478.56 301.39 478.49 245.02 472.73 190.4 539.12 331.8 490.61 322.04 478.56"/><polygon class="cls-1" points="141.72 635 190.4 539.12 218.5 556.93 141.72 635"/><polygon class="cls-2" points="319.71 378.5 255.98 363.95 334.26 299.08 319.71 378.5"/><polygon class="cls-1" points="326.41 242.32 173.24 271.64 334.26 299.08 326.41 242.32"/><polygon class="cls-1" points="286.2 219.26 180.96 270.16 326.41 242.32 286.2 219.26"/><polygon class="cls-1" points="228.05 150.31 173.24 271.64 286.2 219.26 258.47 202.9 228.05 150.31"/><path class="cls-1" d="M240.42,446,117.78,385.13l25,60.46Z" transform="translate(-86.27 -187.34)"/><polygon class="cls-1" points="143.44 155.92 39.59 202.11 154.15 258.61 143.44 155.92"/><polygon class="cls-1" points="228.05 150.31 143.44 155.92 154.13 263.41 228.05 150.31"/><polygon class="cls-1" points="173.24 271.64 154.13 263.41 228.03 156.22 173.24 271.64"/><polygon class="cls-3" points="173.24 271.64 227.46 314.84 334.26 299.08 173.24 271.64"/><polygon class="cls-3" points="142.67 370.85 148.14 367.24 227.46 314.84 334.26 299.08 314.87 315.15 242.48 338.48 142.67 370.85"/><polygon class="cls-1" points="314.87 315.15 142.67 370.85 92.25 389.82 162.68 405.91 255.98 363.95 314.87 315.15"/><polygon class="cls-2" points="308.07 442.06 245.02 472.73 301.39 478.49 308.07 442.06"/></svg>