<svg id="Layer_1" data-name="Layer 1" xmlns="http://www.w3.org/2000/svg" viewBox="0 0 507.79 796.09"><defs><style>.cls-1,.cls-2,.cls-3,.cls-4,.cls-5,.cls-6,.cls-8,.cls-9{fill:#28b998;}.cls-1,.cls-2{stroke:#009696;}.cls-1,.cls-2,.cls-3,.cls-4,.cls-5,.cls-6,.cls-7,.cls-8,.cls-9{stroke-miterlimit:10;}.cls-1,.cls-3,.cls-4,.cls-5,.cls-7{stroke-width:1.72px;}.cls-2,.cls-6,.cls-8,.cls-9{stroke-width:1.71px;}.cls-3,.cls-4,.cls-5,.cls-6,.cls-7,.cls-8,.cls-9{stroke:#fff;}.cls-3,.cls-9{opacity:0.8;}.cls-5,.cls-6{opacity:0.7;}.cls-7{fill:#009696;}</style></defs><path class="cls-1" d="M357.33,755.78" transform="translate(-245.3 -79.97)"/><path class="cls-1" d="M366,669.48" transform="translate(-245.3 -79.97)"/><path class="cls-1" d="M415.7,626.18" transform="translate(-245.3 -79.97)"/><path class="cls-1" d="M382.79,526.71" transform="translate(-245.3 -79.97)"/><path class="cls-2" d="M439.69,534.32" transform="translate(-245.3 -79.97)"/><polygon class="cls-3" points="192.97 266.82 222.81 293 255.27 272.22 192.97 266.82"/><polygon class="cls-3" points="285.13 293 255.27 272.22 315.84 266.82 285.13 293"/><path class="cls-4" d="M468.11,373l-14,48,44.76-66.12Z" transform="translate(-245.3 -79.97)"/><path class="cls-4" d="M546.22,421q-20.76-32.19-41.54-64.37L530.43,373Z" transform="translate(-245.3 -79.97)"/><path class="cls-4" d="M453.19,423.58,463.72,440q17.56-42.57,35.11-85.13Z" transform="translate(-245.3 -79.97)"/><path class="cls-4" d="M546.22,421l-11.41,19Q519,398.61,503.2,357.24Z" transform="translate(-245.3 -79.97)"/><path class="cls-4" d="M498.74,352" transform="translate(-245.3 -79.97)"/><path class="cls-4" d="M498.74,352" transform="translate(-245.3 -79.97)"/><path class="cls-4" d="M455.82,420.65" transform="translate(-245.3 -79.97)"/><polygon class="cls-4" points="255.43 274.86 255.43 290.22 218.59 359.99 255.43 274.86"/><polygon class="cls-4" points="289.68 359.99 255.43 290.22 255.43 274.86 289.68 359.99"/><path class="cls-4" d="M282.14,496.13l4.29-22.81L316.86,421l42.39-35.67,64.1,3.49Z" transform="translate(-245.3 -79.97)"/><polygon class="cls-4" points="192.97 266.82 222.81 293 218.19 308.79 113.95 305.31 135.92 287.73 192.97 266.82"/><polygon class="cls-4" points="290.33 308.79 396.82 305.31 371.14 287.73 315.84 266.82 285.13 293 290.33 308.79"/><polygon class="cls-3" points="36.84 416.16 2.52 532.01 55.36 450.39 92.04 424.94 146.45 407.13 140.31 376.66 94.96 371.97 36.84 416.16"/><path class="cls-3" d="M609.42,487.1l49.14,12.72L699.07,532l41.32,61.59L749.84,612,719.23,500.52l-66.81-48.58-36,4.7Z" transform="translate(-245.3 -79.97)"/><polygon class="cls-4" points="300.92 341.34 315.84 367.37 345.68 348.06 371.14 377.03 407.12 372.33 334.27 309.16 290.33 309.16 300.92 341.34"/><polygon class="cls-4" points="94.96 372.33 140.31 377.03 162.25 347.19 192.97 367.37 207.89 343.97 218.19 309.16 178.05 309.16 94.96 372.33"/><path class="cls-4" d="M719.23,500.52l-4.29-27.2L684.51,421l-42.39-35.67-62.54,3.49c20.8,19.64,44.07,40.07,69.94,60.66C673.56,468.55,697,485.51,719.23,500.52Z" transform="translate(-245.3 -79.97)"/><polygon class="cls-4" points="146.45 407.13 152.3 404.17 192.97 423.47 202.04 442.2 192.97 404.17 192.97 367.01 162.25 346.82 140.31 376.66 146.45 407.13"/><polygon class="cls-4" points="315.29 366.64 345.13 347.33 370.58 376.29 363.56 406.75 357.13 406.75 318.51 422.52 305.64 445.34 315.29 406.75 315.29 366.64"/><path class="cls-3" d="M455.74,665l15.44-11.71H530L542.83,665l14.56-71.39L551,525.16l9.61-38.59V446.46l-14.85-26-11.36,19q-17-34.89-34.09-69.77-18.35,34.88-36.68,69.77l-10.49-16.39-14.85,23.41v37.15l9,41.55-4.08,63.48Z" transform="translate(-245.3 -79.97)"/><polygon class="cls-4" points="218.75 393.93 254.1 312.89 255.83 348.29 240.64 377.25 218.75 393.93"/><polygon class="cls-4" points="290.89 395.1 269.89 381.35 255.83 348.29 254.1 312.89 290.89 395.1"/><polygon class="cls-4" points="237.41 421.13 255.83 385.15 272.49 421.13 255.83 485.2 237.41 421.13"/><polygon class="cls-4" points="204.68 554.54 213.16 559.51 216.09 578.82 210.38 584.09 204.68 556.29 204.68 554.54"/><polygon class="cls-4" points="296.81 558.93 304.71 554.54 298.56 585.55 291.54 579.99 296.81 558.93"/><polygon class="cls-5" points="25.58 496.39 15.68 636.45 71.77 536.4 98.38 422.86 55.36 450.39 25.58 496.39"/><path class="cls-6" d="M739,716.43,726.61,575.24l-26.7-45.44-44-29.28Q669,557.27,682,614,710.5,665.22,739,716.43Z" transform="translate(-245.3 -79.97)"/><polygon class="cls-4" points="36.64 599.07 61.32 752.31 92.04 687.36 146.45 620.66 82.38 625.04 50.28 574.73 36.64 599.07"/><path class="cls-4" d="M690.23,832.28l29.21-151.91-17-26q-14.49,25.3-29,50.62l-71.1-7,61.44,69.34Z" transform="translate(-245.3 -79.97)"/><path class="cls-3" d="M334.83,772.35,388.11,874l25.43-68V732.22L396,698Z" transform="translate(-245.3 -79.97)"/><polygon class="cls-3" points="367.63 789.61 420.34 691.81 357.09 618.02 340.86 651.81 343.05 725.98 367.63 789.61"/><polygon class="cls-4" points="168.24 725.98 190.64 755.38 227.06 715.44 210.22 706 184.5 653.13 168.24 652.25 168.24 725.98"/><polygon class="cls-4" points="279.86 714.99 315.84 755.36 343.05 725.96 338.66 655.3 321.99 655.3 300.48 700.94 279.86 714.99"/><polygon class="cls-4" points="184.63 653.29 229.39 659 252.65 669.53 279.86 658.12 321.99 655.48 300.48 701.12 279.86 715.16 227.2 715.6 209.29 703.98 184.63 653.29"/><polygon class="cls-4" points="50.28 574.73 158.74 549.13 141.19 598.71 150.84 618.02 82.38 625.04 50.28 574.73"/><polygon class="cls-4" points="98.38 505.1 71.77 536.4 50.28 574.73 158.74 549.13 98.38 505.1"/><polygon class="cls-4" points="357.09 618.02 367.63 601.35 348.72 549.13 457.15 574.43 428.19 625.04 357.09 618.02"/><polygon class="cls-4" points="410.63 505.1 348.72 549.13 457.15 574.43 435.5 535.23 410.63 505.1"/><polygon class="cls-4" points="398.05 451.99 410.63 420.55 434.33 532.01 410.63 505.1 373.48 479.63 398.05 451.99"/><polygon class="cls-4" points="110.76 454.48 98.38 422.86 72.8 532.01 98.38 505.1 133.58 480.23 110.76 454.48"/><polygon class="cls-4" points="158.74 549.13 197.94 509.19 200.3 472.66 133.58 480.23 98.38 505.1 158.74 549.13"/><polygon class="cls-4" points="348.72 549.13 410.63 505.1 373.48 479.63 309.06 476.28 312.63 514.16 348.72 549.13"/><polygon class="cls-7" points="334.27 463.26 324.33 451.99 321.99 432.25 357.09 419.08 369.97 430.79 371.14 453.61 357.09 468.23 334.27 463.26"/><polygon class="cls-3" points="410.63 420.55 386.93 430.79 371.14 453.61 369.97 430.79 357.09 419.08 410.63 420.55"/><polygon class="cls-8" points="321.99 432.25 308.31 468.23 309.06 476.28 334.27 463.26 324.33 451.99 321.99 432.25"/><polygon class="cls-9" points="373.48 479.63 309.06 476.28 334.27 463.26 357.09 468.23 371.14 453.61 386.93 430.79 410.63 420.55 398.05 451.99 373.48 479.63"/><polygon class="cls-8" points="306.19 445.34 319.06 422.52 357.68 406.75 364.12 406.75 410.63 420.18 357.09 418.71 321.99 431.88 309.06 465.87 306.19 445.34"/><polygon class="cls-4" points="341.32 436.42 348.45 433.5 355.65 439.13 353.61 453.24 341.32 446.95 341.32 436.42"/><polygon class="cls-7" points="138.31 451.99 138.31 430.2 153.23 420.55 185.71 433.5 183.95 450.97 178.69 462.68 152.36 468.23 138.31 451.99"/><polygon class="cls-3" points="200.3 472.66 133.58 480.23 110.76 454.48 98.38 422.86 124.07 432.25 137.68 451.99 151.72 468.23 178.05 462.68 200.3 472.66"/><polygon class="cls-4" points="152.6 420.55 98.38 422.86 152.31 404.17 192.97 423.47 202.04 442.2 200.3 472.66 185.07 433.5 152.6 420.55"/><polygon class="cls-3" points="138.31 450.09 138.31 430.2 153.23 420.55 99.02 422.86 124.71 432.25 138.31 450.09"/><polygon class="cls-4" points="185.07 433.5 200.3 472.66 178.05 462.68 183.32 450.97 185.07 433.5"/><polygon class="cls-4" points="159.41 432.19 166.52 435.17 167.62 444.25 156.19 452.76 151.95 439.63 159.41 432.19"/><polygon class="cls-4" points="226.56 574.62 284.55 574.62 297.74 586.11 284.55 594.14 263.88 594.14 241.21 594.14 222.55 594.14 211.35 586.11 226.56 574.62"/><polygon class="cls-4" points="241.53 609.94 254.41 630.71 267.86 609.94 264.06 594.14 244.46 594.14 241.53 609.94"/><path class="cls-4" d="M530.43,674.12a45.61,45.61,0,0,0-17.26,15.79l-3.81-15.79Z" transform="translate(-245.3 -79.97)"/><path class="cls-4" d="M467.23,674.12h22.53l-2.92,15.79a55.36,55.36,0,0,0-7.84-8.17A54.3,54.3,0,0,0,467.23,674.12Z" transform="translate(-245.3 -79.97)"/><polygon class="cls-4" points="156.58 560.39 158.74 549.13 197.94 509.19 210.52 585.55 156.58 560.39"/><polygon class="cls-4" points="312.63 514.16 348.72 549.13 352.81 560.41 298.56 585.55 312.63 514.16"/><path class="cls-4" d="M474.69,738.81l25-28.53,25.45,27.65L500,726.37Z" transform="translate(-245.3 -79.97)"/><path class="cls-4" d="M474.69,738.81,500,726.37l25.16,11.56L498,749.34Z" transform="translate(-245.3 -79.97)"/><path class="cls-3" d="M499.1,709.85l-12.87-20.77a54.86,54.86,0,0,0-19.6-15.8l-12.87-8.19-52.49-25.16-15.39,38.33,28.38,53.53,59.83,6.59Z" transform="translate(-245.3 -79.97)"/><path class="cls-3" d="M598.11,640.38l-54.25,25.14-13.43,8.19a45.64,45.64,0,0,0-17.26,15.8L500.57,709l24.59,29L584,735.3,602.39,698l10.54-16.67Z" transform="translate(-245.3 -79.97)"/><polygon class="cls-4" points="153.56 566.57 208.86 596.76 149.1 579.18 153.56 566.57"/><path class="cls-4" d="M389.22,673.8l61.7,18.29-58.18-.89-5.28-12.42Z" transform="translate(-245.3 -79.97)"/><polygon class="cls-4" points="157.54 629.3 211.49 633.62 163.45 640.83 157.54 629.3"/><polygon class="cls-4" points="354.35 564.4 297.47 594.58 359.19 577.77 354.35 564.4"/><path class="cls-4" d="M608.76,674.55l-61.88,15.36,60-2.19q2.71-4.25,5.42-8.48Z" transform="translate(-245.3 -79.97)"/><polygon class="cls-4" points="348.06 626.68 297.47 630.4 345.9 637.4 351.06 626.68 348.06 626.68"/><polygon class="cls-3" points="2.52 51.93 11.29 22.09 15.68 33.5 31.48 125.66 2.52 51.93"/><polygon class="cls-3" points="24.58 2.78 31.61 22.09 31.61 125.66 15.81 33.5 24.58 2.78"/><polygon class="cls-4" points="6.91 245.02 23.58 179.19 41.13 393.35 6.91 245.02"/><polygon class="cls-3" points="31.48 125.66 50.28 259.94 94.96 319.18 71.56 340.98 41.13 393.35 30.76 266.82 23.58 174.8 31.48 125.66"/><polygon class="cls-4" points="135.92 287.73 74.48 207.28 31.48 125.66 50.28 259.94 94.96 319.18 135.92 287.73"/><polygon class="cls-3" points="506.88 51.93 498.11 22.09 493.72 33.5 477.92 125.66 506.88 51.93"/><polygon class="cls-3" points="484.98 2.78 477.95 22.09 477.95 125.66 493.75 33.5 484.98 2.78"/><polygon class="cls-4" points="502.49 245.02 485.82 179.19 468.26 393.35 502.49 245.02"/><polygon class="cls-3" points="477.92 125.66 459.12 259.94 414.44 319.18 437.84 340.98 468.26 393.35 478.64 266.82 485.82 174.8 477.92 125.66"/><polygon class="cls-4" points="373.48 287.73 434.91 207.28 477.92 125.66 459.12 259.94 414.44 319.18 373.48 287.73"/></svg>